# xmcd
#
# Track frame offsets:
#	183
#	21033
#	35265
#	54360
#	79708
#	96428
#	116073
#	137825
#	172180
#	199243
#	237030
#	255080
#	278678
#
# Disc length: 4199 seconds
# Revision: 0
# Processed by: cddbd v1.5.2PL0 Copyright (c) Steve Scherf et al.
# Submitted via: dBpowerAMP V12.0
#
DISCID=a810650d
DTITLE=Blow Monkeys - Whoops! There Goes the Neighborhood
DYEAR=1989
DGENRE=Rock A-C
TTITLE0=This Is Your Life
TTITLE1=Wait
TTITLE2=No Woman Is an Island
TTITLE3=It Pays to Belong
TTITLE4=Mercy, Pity, Peace and Love
TTITLE5=Squaresville
TTITLE6=Come On Down
TTITLE7=Sweet Talking Rapist at Home
TTITLE8=Bombed into the Stoneage
TTITLE9=Let's Emigrate
TTITLE10=The Love of Which I Dare not Speak
TTITLE11=This Is Your Life ('88)
TTITLE12=Squaresville (Longer)
EXTD=
EXTT0=
EXTT1=
EXTT2=
EXTT3=
EXTT4=
EXTT5=
EXTT6=
EXTT7=
EXTT8=
EXTT9=
EXTT10=
EXTT11=
EXTT12=
PLAYORDER=
